#!OML:ASF F:\VICON\USERDATA\INSTALL\Justin_Nancy\Justin_Nancy.ASF
:FULLY-SPECIFIED
:DEGREES
490
root 0.272194 17.1066 28.7221 1.3266 2.08051 7.76848
lowerback 5.75894 -1.59157 -7.6322
upperback -0.517174 -2.63846 0.449119
thorax -3.41056 -1.16519 4.97434
lowerneck -15.9927 -3.36495 -9.7224
upperneck 21.1329 -3.44475 5.47622
head 9.59531 -1.78048 3.07885
rclavicle -8.79622e-015 -5.56597e-015
rhumerus -44.7118 -28.2983 -67.0383
rradius 24.9211
rwrist 11.6023
rhand -16.5325 11.4133
rfingers 7.12502
rthumb 9.68639 -18.344
lclavicle -8.79622e-015 -5.56597e-015
lhumerus -24.4767 6.62231 84.7381
lradius 32.0015
lwrist -7.28633
lhand -15.4419 22.7384
lfingers 7.12502
lthumb 10.7386 52.4439
rfemur -29.8477 2.7152 10.8731
rtibia 16.7864
rfoot -2.8629 -14.5281
rtoes -5.4851
lfemur 6.67359 -1.23278 -31.6907
ltibia 19.3825
lfoot -16.978 -5.40288
ltoes -2.6047
491
root 0.246699 17.0867 28.9099 1.29383 2.22199 7.82098
lowerback 5.53229 -1.65212 -7.85053
upperback -0.392883 -2.70806 0.470447
thorax -3.13255 -1.21139 5.11129
lowerneck -15.9956 -3.37571 -9.66708
upperneck 21.0467 -3.46605 5.4531
head 9.56577 -1.78723 3.05732
rclavicle -1.59525e-014 -2.78299e-014
rhumerus -44.9915 -29.0272 -66.4006
rradius 24.5058
rwrist 12.0415
rhand -16.5325 11.7468
rfingers 7.12502
rthumb 9.68637 -18.0105
lclavicle -1.59525e-014 -2.78299e-014
lhumerus -24.2635 6.32833 84.7861
lradius 32.5392
lwrist -7.04451
lhand -14.5752 23.7885
lfingers 7.12502
lthumb 11.5745 53.4489
rfemur -29.3343 3.49144 10.411
rtibia 15.0071
rfoot -4.69874 -14.0607
rtoes -5.47489
lfemur 7.53786 -1.32981 -31.575
ltibia 19.1287
lfoot -17.0367 -5.78988
ltoes -2.86589
492
root 0.222562 17.0662 29.0857 1.26324 2.20905 7.45442
lowerback 5.56109 -1.67099 -7.61299
upperback -0.42116 -2.71697 0.595492
thorax -3.18119 -1.21612 5.11133
lowerneck -15.7087 -3.32924 -9.51575
upperneck 20.8788 -3.44609 5.3716
head 9.44712 -1.77663 3.00543
rclavicle -5.1684e-015 -1.03368e-014
rhumerus -45.4562 -29.5621 -65.739
rradius 24.0597
rwrist 12.4212
rhand -16.7146 12.3571
rfingers 7.12502
rthumb 9.51072 -17.4083
lclavicle -5.1684e-015 -1.03368e-014
lhumerus -24.1534 6.25445 84.7875
lradius 32.8657
lwrist -7.1446
lhand -13.7101 25.0748
lfingers 7.12502
lthumb 12.4087 54.6865
rfemur -29.0663 4.31995 10.5293
rtibia 14.0148
rfoot -6.87996 -13.4588
rtoes -4.35005
lfemur 8.30319 -1.68268 -31.1069
ltibia 18.9733
lfoot -16.9484 -5.79161
ltoes -3.56444
493
root 0.20028 17.0383 29.2585 1.26736 2.12332 7.3387
lowerback 5.7842 -1.63784 -7.58795
upperback -0.526229 -2.69243 0.650683
thorax -3.41887 -1.19064 5.16609
lowerneck -15.7358 -3.35759 -9.52393
upperneck 20.9669 -3.49471 5.41728
head 9.48789 -1.79577 3.0175
rclavicle 4.67144e-015 4.77083e-015
rhumerus -45.9304 -29.9856 -65.1082
rradius 23.7184
rwrist 12.8131
rhand -16.8621 12.532
rfingers 7.12502
rthumb 9.36839 -17.2398
lclavicle 4.67144e-015 4.77083e-015
lhumerus -24.1794 6.0998 84.8318
lradius 33.2488
lwrist -7.14668
lhand -13.6589 25.6142
lfingers 7.12502
lthumb 12.458 55.2229
rfemur -28.9919 4.3826 10.768
rtibia 13.7789
rfoot -7.61643 -12.1959
rtoes -5.31436
lfemur 8.92146 -1.93425 -30.9304
ltibia 18.9504
lfoot -16.8375 -5.83447
ltoes -4.87649
494
root 0.182638 17.0132 29.4455 1.1275 2.09204 7.51373
lowerback 5.90981 -1.62239 -7.81632
upperback -0.452465 -2.69707 0.610833
thorax -3.40401 -1.19173 5.2568
lowerneck -15.9956 -3.36634 -9.47288
upperneck 21.071 -3.49818 5.42095
head 9.57193 -1.79059 3.0097
rclavicle -2.11706e-014 -6.36111e-015
rhumerus -46.1781 -30.4294 -64.6261
rradius 23.3839
rwrist 13.2136
rhand -17.0174 12.2738
rfingers 7.12502
rthumb 9.21851 -17.5046
lclavicle -2.11706e-014 -6.36111e-015
lhumerus -24.0655 5.78171 84.8737
lradius 33.685
lwrist -6.85952
lhand -13.4643 26.2029
lfingers 7.12502
lthumb 12.6456 55.8001
rfemur -28.7932 3.51794 11.0981
rtibia 14.129
rfoot -7.03952 -10.5051
rtoes -6.1841
lfemur 9.66553 -2.21656 -31.1283
ltibia 19.1307
lfoot -16.7901 -5.74731
ltoes -6.47878
495
root 0.169843 16.9929 29.634 1.00142 2.0157 7.3196
lowerback 5.86805 -1.64476 -7.61024
upperback -0.368545 -2.70286 0.67836
thorax -3.29721 -1.205 5.20788
lowerneck -16.0697 -3.31902 -9.54265
upperneck 21.1183 -3.43376 5.52996
head 9.59991 -1.75382 3.06878
rclavicle 1.11319e-014 2.22639e-014
rhumerus -46.3685 -30.7685 -64.1306
rradius 23.0422
rwrist 13.6435
rhand -16.9826 12.334
rfingers 7.12502
rthumb 9.25213 -17.443
lclavicle 1.11319e-014 2.22639e-014
lhumerus -23.9014 5.46458 84.9224
lradius 33.9687
lwrist -6.49744
lhand -13.398 26.3989
lfingers 7.12502
lthumb 12.7095 55.9922
rfemur -28.8581 2.40833 11.9402
rtibia 15.0911
rfoot -6.3019 -8.58291
rtoes -5.40885
lfemur 10.507 -2.5785 -31.0006
ltibia 19.382
lfoot -16.903 -5.27772
ltoes -8.03749
496
root 0.151916 16.9757 29.8164 0.943992 1.89246 6.95474
lowerback 5.73297 -1.65395 -7.296
upperback -0.303554 -2.67551 0.802303
thorax -3.16452 -1.20351 5.15113
lowerneck -15.8561 -3.26445 -9.60728
upperneck 20.8771 -3.3758 5.61824
head 9.47309 -1.72221 3.11604
rclavicle 3.5334e-014 5.56597e-015
rhumerus -46.547 -31.3141 -63.4944
rradius 22.5413
rwrist 14.3583
rhand -16.8771 12.612
rfingers 7.12502
rthumb 9.35391 -17.1604
lclavicle 3.5334e-014 5.56597e-015
lhumerus -23.7774 5.20157 84.9533
lradius 34.1679
lwrist -6.22592
lhand -13.9245 24.9354
lfingers 7.12502
lthumb 12.2019 54.5595
rfemur -29.1483 1.54659 12.9313
rtibia 16.4246
rfoot -5.22192 -6.81152
rtoes -5.13569
lfemur 11.2584 -2.77443 -30.6231
ltibia 19.6807
lfoot -16.9005 -4.81808
ltoes -9.74528
